<svg width="18" height="18" viewBox="0 0 18 18" fill="none" xmlns="http://www.w3.org/2000/svg">
<path d="M17.0844 9.00018C17.0844 8.43635 16.7713 7.92824 16.2731 7.67254L2.27792 0.486072C1.74605 0.213168 1.12648 0.275453 0.660168 0.649978C0.194674 1.02368 0.000445042 1.61621 0.152878 2.19316L1.71572 8.13066L8.19576 8.12984C8.676 8.12984 9.06528 8.51912 9.06528 8.99936C9.06528 9.47961 8.676 9.86889 8.19576 9.86889L1.71491 9.86889L0.15206 15.8064C0.0151979 16.3284 0.161075 16.8628 0.535601 17.2373C0.574938 17.2766 0.617554 17.3143 0.661808 17.3504C1.1273 17.7241 1.74769 17.7872 2.27792 17.5143L16.2731 10.3295C16.7738 10.0713 17.0844 9.56238 17.0844 9.00018Z" fill="white"/>
</svg>
