<svg width="21" height="20" viewBox="0 0 21 20" fill="none" xmlns="http://www.w3.org/2000/svg" stroke="currentColor" stroke-width="1.5" stroke-linecap="round" stroke-linejoin="round">
<path d="M7.19726 15.8333C3.86393 15.8333 2.19727 15 2.19727 10.8333V6.66663C2.19727 3.33329 3.86393 1.66663 7.19726 1.66663H13.8639C17.1973 1.66663 18.8639 3.33329 18.8639 6.66663V10.8333C18.8639 14.1666 17.1973 15.8333 13.8639 15.8333H13.4473C13.1889 15.8333 12.9389 15.9583 12.7806 16.1666L11.5306 17.8333C10.9806 18.5666 10.0806 18.5666 9.5306 17.8333L8.2806 16.1666C8.14726 15.9833 7.83893 15.8333 7.61393 15.8333H7.19726Z"/>
<path d="M6.36523 6.66663H14.6986"/>
<path d="M6.36523 10.8334H11.3652"/>
</svg>
