<svg width="16" height="16" viewBox="0 0 16 16" fill="none" xmlns="http://www.w3.org/2000/svg" stroke="currentColor" stroke-opacity="1" stroke-width="1.5" stroke-linecap="round" stroke-linejoin="round">
<path d="M11.0138 3.76672L8.94714 2.16672C8.68047 1.90006 8.08047 1.76672 7.68047 1.76672H5.14714C4.34714 1.76672 3.48047 2.36672 3.28047 3.16672L1.68047 8.03339C1.34714 8.96672 1.94714 9.76672 2.94714 9.76672H5.61381C6.01381 9.76672 6.34714 10.1001 6.28047 10.5667L5.94714 12.7001C5.81381 13.3001 6.21381 13.9667 6.81381 14.1667C7.34714 14.3667 8.01381 14.1001 8.28047 13.7001L11.0138 9.63339" />
<path d="M14.4134 10.3C14.4134 11.2333 14.0134 11.5667 13.0801 11.5667H12.4134C11.4801 11.5667 11.0801 11.2333 11.0801 10.3V3.76667C11.0801 2.83333 11.4801 2.5 12.4134 2.5H13.0801C14.0134 2.5 14.4134 2.83333 14.4134 3.76667V10.3Z" />
</svg>
