<svg width="18" height="18" viewBox="0 0 18 18" fill="none" xmlns="http://www.w3.org/2000/svg">
<g clip-path="url(#clip0_711_1816)">
<path d="M7.14821 9.36237C6.79946 9.24612 6.79946 8.75364 7.14821 8.63739L9.19527 7.95574C9.64526 7.8057 10.0541 7.55291 10.3894 7.2174C10.7248 6.8819 10.9773 6.4729 11.1271 6.02282L11.8088 3.97682C11.925 3.62807 12.4175 3.62807 12.5338 3.97682L13.2154 6.02388C13.3654 6.47387 13.6182 6.88273 13.9537 7.21806C14.2892 7.55338 14.6982 7.80595 15.1483 7.95574L17.1943 8.63739C17.2707 8.66245 17.3372 8.71099 17.3843 8.77609C17.4315 8.84118 17.4569 8.9195 17.4569 8.99988C17.4569 9.08025 17.4315 9.15857 17.3843 9.22367C17.3372 9.28876 17.2707 9.3373 17.1943 9.36237L15.1473 10.044C14.6974 10.1939 14.2886 10.4466 13.9533 10.7819C13.618 11.1172 13.3653 11.526 13.2154 11.9759L12.5338 14.0229C12.5087 14.0993 12.4602 14.1658 12.3951 14.2129C12.33 14.2601 12.2516 14.2855 12.1713 14.2855C12.0909 14.2855 12.0126 14.2601 11.9475 14.2129C11.8824 14.1658 11.8338 14.0993 11.8088 14.0229L11.1271 11.9759C10.9772 11.526 10.7246 11.1172 10.3893 10.7819C10.0539 10.4466 9.64515 10.1939 9.19527 10.044L7.14821 9.36237ZM1.7595 13.4449C1.71373 13.4297 1.6739 13.4005 1.64568 13.3614C1.61745 13.3223 1.60226 13.2754 1.60226 13.2272C1.60226 13.1789 1.61745 13.132 1.64568 13.0929C1.6739 13.0538 1.71373 13.0246 1.7595 13.0094L2.98752 12.6005C3.53495 12.4176 3.96402 11.9886 4.14685 11.4411L4.55584 10.2131C4.57099 10.1673 4.60018 10.1275 4.63927 10.0993C4.67835 10.0711 4.72533 10.0559 4.77354 10.0559C4.82175 10.0559 4.86874 10.0711 4.90782 10.0993C4.9469 10.1275 4.97609 10.1673 4.99125 10.2131L5.40023 11.4411C5.49019 11.7111 5.64178 11.9564 5.84301 12.1577C6.04424 12.3589 6.28957 12.5105 6.55956 12.6005L7.78759 13.0094C7.83335 13.0246 7.87318 13.0538 7.90141 13.0929C7.92963 13.132 7.94483 13.1789 7.94483 13.2272C7.94483 13.2754 7.92963 13.3223 7.90141 13.3614C7.87318 13.4005 7.83335 13.4297 7.78759 13.4449L6.55956 13.8538C6.28957 13.9438 6.04424 14.0954 5.84301 14.2966C5.64179 14.4979 5.49019 14.7432 5.40023 15.0132L4.99125 16.2412C4.97609 16.287 4.9469 16.3268 4.90782 16.355C4.86874 16.3832 4.82175 16.3984 4.77354 16.3984C4.72533 16.3984 4.67835 16.3832 4.63927 16.355C4.60018 16.3268 4.57099 16.287 4.55584 16.2412L4.14685 15.0132C4.0569 14.7432 3.9053 14.4979 3.70407 14.2966C3.50284 14.0954 3.25751 13.9438 2.98752 13.8538L1.7595 13.4449ZM0.650894 5.97421C0.620802 5.96377 0.594709 5.94423 0.576242 5.91828C0.557775 5.89233 0.547851 5.86127 0.547851 5.82942C0.547851 5.79757 0.557775 5.76652 0.576242 5.74057C0.594709 5.71462 0.620802 5.69507 0.650894 5.68464L1.46887 5.41198C1.83453 5.29045 2.12093 5.00405 2.24246 4.63839L2.51512 3.82041C2.52555 3.79032 2.5451 3.76423 2.57105 3.74576C2.597 3.72729 2.62806 3.71737 2.6599 3.71737C2.69175 3.71737 2.72281 3.72729 2.74876 3.74576C2.77471 3.76423 2.79426 3.79032 2.80469 3.82041L3.07735 4.63839C3.13729 4.81859 3.23842 4.98233 3.37271 5.11662C3.507 5.2509 3.67074 5.35203 3.85094 5.41198L4.66892 5.68464C4.69901 5.69507 4.7251 5.71462 4.74357 5.74057C4.76204 5.76652 4.77196 5.79757 4.77196 5.82942C4.77196 5.86127 4.76204 5.89233 4.74357 5.91828C4.7251 5.94423 4.69901 5.96377 4.66892 5.97421L3.85094 6.24687C3.67074 6.30681 3.507 6.40794 3.37271 6.54223C3.23842 6.67651 3.13729 6.84026 3.07735 7.02046L2.80469 7.83738C2.79426 7.86747 2.77471 7.89356 2.74876 7.91203C2.72281 7.9305 2.69175 7.94042 2.65991 7.94042C2.62806 7.94042 2.597 7.9305 2.57105 7.91203C2.5451 7.89356 2.52555 7.86747 2.51512 7.83738L2.24246 7.0194C2.12093 6.65374 1.83453 6.36734 1.46887 6.24581L0.65195 5.97421L0.650894 5.97421Z" fill="white"/>
</g>
<defs>
<clipPath id="clip0_711_1816">
<rect width="16.9091" height="16.9091" fill="white" transform="translate(0.545898 17.4541) rotate(-90)"/>
</clipPath>
</defs>
</svg>
