<svg width="18" height="17" viewBox="0 0 18 17" fill="none" xmlns="http://www.w3.org/2000/svg">
<path d="M12.2708 9.14582L10.9792 7.85416C11.0347 7.32638 10.875 6.87152 10.5 6.48957C10.125 6.10763 9.67361 5.94443 9.14583 5.99999L7.85417 4.70832C8.03472 4.63888 8.22222 4.5868 8.41667 4.55207C8.61111 4.51735 8.80556 4.49999 9 4.49999C9.97222 4.49999 10.7986 4.84027 11.4792 5.52082C12.1597 6.20138 12.5 7.02777 12.5 7.99999C12.5 8.19443 12.4826 8.38888 12.4479 8.58332C12.4132 8.77777 12.3542 8.96527 12.2708 9.14582ZM15.0417 11.9167L13.9583 10.8333C14.4583 10.4444 14.9132 10.0174 15.3229 9.55207C15.7326 9.0868 16.0764 8.56943 16.3542 7.99999C15.6736 6.59721 14.6701 5.49652 13.3438 4.69791C12.0174 3.8993 10.5694 3.49999 9 3.49999C8.63889 3.49999 8.28472 3.52082 7.9375 3.56249C7.59028 3.60416 7.25 3.6736 6.91667 3.77082L5.70833 2.56249C6.23611 2.35416 6.77431 2.20832 7.32292 2.12499C7.87153 2.04166 8.43056 1.99999 9 1.99999C10.9861 1.99999 12.8021 2.53818 14.4479 3.61457C16.0938 4.69096 17.2778 6.15277 18 7.99999C17.6944 8.79166 17.2882 9.51041 16.7812 10.1562C16.2743 10.8021 15.6944 11.3889 15.0417 11.9167ZM15 16.125L12.2917 13.4167C11.7639 13.6111 11.2257 13.7569 10.6771 13.8542C10.1285 13.9514 9.56944 14 9 14C7.01389 14 5.19792 13.4618 3.55208 12.3854C1.90625 11.309 0.722222 9.84721 0 7.99999C0.305556 7.20832 0.708333 6.4861 1.20833 5.83332C1.70833 5.18055 2.29167 4.59027 2.95833 4.06249L0.875 1.97916L1.9375 0.916656L16.0625 15.0625L15 16.125ZM4.02083 5.14582C3.53472 5.53471 3.08333 5.9618 2.66667 6.42707C2.25 6.89235 1.90972 7.41666 1.64583 7.99999C2.32639 9.40277 3.32986 10.5035 4.65625 11.3021C5.98264 12.1007 7.43056 12.5 9 12.5C9.36111 12.5 9.71528 12.4757 10.0625 12.4271C10.4097 12.3785 10.7569 12.3125 11.1042 12.2292L10.1667 11.2917C9.97222 11.3611 9.77778 11.4132 9.58333 11.4479C9.38889 11.4826 9.19444 11.5 9 11.5C8.02778 11.5 7.20139 11.1597 6.52083 10.4792C5.84028 9.7986 5.5 8.97221 5.5 7.99999C5.5 7.80555 5.52431 7.6111 5.57292 7.41666C5.62153 7.22221 5.66667 7.02777 5.70833 6.83332L4.02083 5.14582Z" fill="#96969D"/>
</svg>
