<svg width="16" height="16" viewBox="0 0 16 16" fill="none" xmlns="http://www.w3.org/2000/svg" stroke="currentColor" stroke-opacity="1" stroke-width="1.5" stroke-linecap="round" stroke-linejoin="round">
<path d="M4.98633 12.2333L7.05299 13.8333C7.31966 14.0999 7.91966 14.2333 8.31966 14.2333H10.853C11.653 14.2333 12.5197 13.6333 12.7197 12.8333L14.3197 7.96661C14.653 7.03327 14.053 6.23327 13.053 6.23327H10.3863C9.98633 6.23327 9.65299 5.89994 9.71966 5.43327L10.053 3.29994C10.1863 2.69994 9.78633 2.03327 9.18633 1.83327C8.65299 1.63327 7.98633 1.89994 7.71966 2.29994L4.98633 6.3666" />
<path d="M1.58594 5.70002C1.58594 4.76668 1.98594 4.43335 2.91927 4.43335H3.58594C4.51927 4.43335 4.91927 4.76668 4.91927 5.70002V12.2333C4.91927 13.1667 4.51927 13.5 3.58594 13.5H2.91927C1.98594 13.5 1.58594 13.1667 1.58594 12.2333V5.70002Z" />
</svg>
