<svg width="21" height="20" viewBox="0 0 21 20" fill="none" xmlns="http://www.w3.org/2000/svg" stroke="currentColor"  stroke-width="1.5" stroke-linecap="round" stroke-linejoin="round">
<path d="M7.19727 10.1666H13.0306"/>
<path d="M7.19727 13.5H10.8473"/>
<path d="M12.1973 4.99996C13.8639 4.99996 13.8639 4.16663 13.8639 3.33329C13.8639 1.66663 13.0306 1.66663 12.1973 1.66663H8.86393C8.0306 1.66663 7.19727 1.66663 7.19727 3.33329C7.19727 4.99996 8.0306 4.99996 8.86393 4.99996H12.1973Z" />
<path d="M13.8646 3.34998C16.6396 3.49998 18.0312 4.52498 18.0312 8.33331V13.3333C18.0312 16.6666 17.1979 18.3333 13.0312 18.3333H8.03125C3.86458 18.3333 3.03125 16.6666 3.03125 13.3333V8.33331C3.03125 4.53331 4.42292 3.49998 7.19792 3.34998" />
</svg>
