<svg width="16" height="16" viewBox="0 0 16 16" fill="none" xmlns="http://www.w3.org/2000/svg" stroke="currentColor" stroke-width="1.5" stroke-linecap="round" stroke-linejoin="round">
<path d="M8.00065 13.6663H4.66732C2.66732 13.6663 1.33398 12.6663 1.33398 10.333V5.66634C1.33398 3.33301 2.66732 2.33301 4.66732 2.33301H11.334C13.334 2.33301 14.6673 3.33301 14.6673 5.66634V7.66634" />
<path d="M11.3327 6L9.24601 7.66667C8.55935 8.21333 7.43268 8.21333 6.74601 7.66667L4.66602 6" />
<path d="M10.446 12.2069C10.3527 12.3002 10.266 12.4735 10.246 12.6002L10.1194 13.5002C10.0727 13.8269 10.2994 14.0535 10.626 14.0069L11.526 13.8802C11.6527 13.8602 11.8327 13.7735 11.9194 13.6802L14.2794 11.3202C14.686 10.9135 14.8794 10.4402 14.2794 9.8402C13.686 9.24686 13.2127 9.44018 12.806 9.84685L10.446 12.2069Z" />
<path d="M12.4668 10.1865C12.6668 10.9065 13.2268 11.4665 13.9468 11.6665" />
</svg>
